<svg width="32" height="32" viewBox="0 0 32 32" fill="none" xmlns="http://www.w3.org/2000/svg">
  <rect width="32" height="32" rx="8" fill="#3B82F6"/>
  <path d="M16 7C10.477 7 6 11.477 6 17C6 22.523 10.477 27 16 27C21.523 27 26 22.523 26 17C26 11.477 21.523 7 16 7ZM16 9.5C17.93 9.5 19.5 11.07 19.5 13C19.5 14.93 17.93 16.5 16 16.5C14.07 16.5 12.5 14.93 12.5 13C12.5 11.07 14.07 9.5 16 9.5ZM16 24.6C13.5 24.6 11.275 23.39 9.9 21.54C9.925 19.27 14.3 18 16 18C17.7 18 22.075 19.27 22.1 21.54C20.725 23.39 18.5 24.6 16 24.6Z" fill="white"/>
</svg>